<svg xmlns="http://www.w3.org/2000/svg" width="19" height="19"><path data-v-25834877="" d="M5.982 15.563c.86 0 1.563.703 1.563 1.562 0 .86-.703 1.563-1.563 1.563s-1.562-.704-1.562-1.563c0-.86.703-1.563 1.562-1.563zm10 0c.86 0 1.563.703 1.563 1.562 0 .86-.703 1.563-1.563 1.563s-1.562-.704-1.562-1.563c0-.86.703-1.563 1.562-1.563zM5.855 2.437h12.94l-.069.84c-.01.176-.322 4.336-.459 5.215-.185 1.26-1.26 2.197-2.724 2.403-.918.126-5.723.683-7.686.918V10.24c2.06-.254 6.602-.771 7.48-.898.772-.098 1.3-.518 1.387-1.084.088-.547.264-2.705.381-4.258H5.982v8.115c0 .576.4.947 1.035.947h10.528v1.563H7.017c-1.484 0-2.597-1.074-2.597-2.51V3.2c0-.566-.537-1.074-1.153-1.074H.357V.562h2.91c1.201 0 2.246.801 2.588 1.875z" fill="#9B9B9B" fill-rule="evenodd"/></svg>