<svg width="12" height="12" xmlns="http://www.w3.org/2000/svg"><path d="M3.294 10.294A.963.963 0 0 1 4 10c.275 0 .51.098.706.294A.963.963 0 0 1 5 11c0 .275-.098.51-.294.706A.963.963 0 0 1 4 12a.963.963 0 0 1-.706-.294A.963.963 0 0 1 3 11c0-.275.098-.51.294-.706zm6 0A.963.963 0 0 1 10 10c.275 0 .51.098.706.294A.963.963 0 0 1 11 11c0 .275-.098.51-.294.706A.963.963 0 0 1 10 12a.963.963 0 0 1-.706-.294A.963.963 0 0 1 9 11c0-.275.098-.51.294-.706zM3.578 1.2H12l-.044.538c-.009.175-.051.715-.128 1.621-.076.907-.133 1.478-.171 1.716-.06.404-.25.745-.572 1.022-.322.277-.723.449-1.202.516-.008 0-1.675.195-5.002.587V6.194c.348-.042.903-.106 1.666-.194l2.05-.238c.603-.07.988-.118 1.153-.143.25-.03.456-.106.617-.232a.718.718 0 0 0 .286-.462c.046-.296.129-1.204.247-2.725H3.661v5.194c0 .183.06.33.181.44.12.11.285.166.493.166h6.851v1H4.335c-.483 0-.886-.153-1.208-.46a1.517 1.517 0 0 1-.483-1.146V1.687a.634.634 0 0 0-.226-.48A.753.753 0 0 0 1.894 1H0V0h1.894c.386 0 .734.112 1.046.338.311.225.524.512.638.862z" fill-rule="evenodd"/></svg>