<svg xmlns="http://www.w3.org/2000/svg" width="12" height="12"><path d="M0 11.147l3.18-3.18a4.805 4.805 0 0 1-1.05-3.036c0-.66.124-1.29.373-1.891A4.822 4.822 0 0 1 3.58 1.442C4.043.98 4.575.623 5.177.374A4.895 4.895 0 0 1 7.069 0a4.963 4.963 0 0 1 3.489 1.442c.463.464.819.996 1.068 1.598.25.601.374 1.232.374 1.891a4.895 4.895 0 0 1-1.442 3.49 4.963 4.963 0 0 1-1.605 1.068c-.602.25-1.23.374-1.884.374A4.806 4.806 0 0 1 4.033 8.82L.853 12 0 11.147zm9.712-3.58a3.602 3.602 0 0 1-2.643 1.095 3.602 3.602 0 0 1-2.644-1.095C3.7 6.842 3.338 5.964 3.338 4.931c0-1.027.362-1.908 1.087-2.643.735-.725 1.617-1.087 2.644-1.087 1.032 0 1.91.362 2.635 1.087A3.602 3.602 0 0 1 10.8 4.931c0 1.033-.362 1.911-1.087 2.636z" fill="#464B4F" fill-rule="evenodd"/></svg>