<svg width="12" height="13" xmlns="http://www.w3.org/2000/svg"><path d="M8.136 5.913C7.565 6.638 6.853 7 6 7c-.853 0-1.566-.363-2.14-1.09C3.287 5.183 3 4.279 3 3.197c0-.565.136-1.094.408-1.588.273-.494.64-.886 1.102-1.175C4.972.144 5.469 0 6 0s1.028.145 1.49.434c.462.29.83.68 1.102 1.175.272.494.408 1.023.408 1.588 0 1.082-.288 1.987-.864 2.716zM7.397 1.66C6.995 1.22 6.53 1 6 1s-.995.219-1.397.656A2.189 2.189 0 0 0 4 3.185c0 .801.19 1.47.572 2.009C4.953 5.73 5.429 6 6 6c.57 0 1.047-.269 1.428-.806C7.81 4.656 8 3.986 8 3.184c0-.58-.2-1.09-.603-1.524zM1.155 13H0l.101-1.22c.125-1.22.694-2.155 1.708-2.805C2.822 8.325 4.219 8 6 8c1.781 0 3.178.324 4.191.971 1.014.647 1.583 1.581 1.708 2.801L12 13h-1.155l-.101-1.116a2.548 2.548 0 0 0-1.17-1.92 4.393 4.393 0 0 0-1.087-.476 7.024 7.024 0 0 0-1.22-.253A11.36 11.36 0 0 0 6 9.168c-.448 0-.87.022-1.267.067a7.024 7.024 0 0 0-1.22.253 4.306 4.306 0 0 0-1.087.48c-.308.196-.57.458-.783.785a2.502 2.502 0 0 0-.387 1.138L1.156 13z" fill-rule="evenodd"/></svg>