<svg data-v-5ee5f840="" width="10" height="10" xmlns="http://www.w3.org/2000/svg"><path data-v-5ee5f840="" d="M6.92 4.676a2.472 2.472 0 0 1-1.92.86 2.477 2.477 0 0 1-1.922-.862c-.516-.575-.774-1.29-.774-2.146 0-.447.123-.865.367-1.256.245-.39.575-.7.99-.929A2.73 2.73 0 0 1 5 0c.477 0 .924.114 1.339.343.415.229.745.539.99.93.244.39.367.808.367 1.255 0 .856-.26 1.572-.777 2.148zm-.693-3.309A1.73 1.73 0 0 0 5 .865c-.465 0-.874.166-1.227.5-.353.332-.53.72-.53 1.163 0 .61.168 1.12.502 1.529.335.41.754.614 1.255.614.501 0 .92-.205 1.255-.614.334-.41.502-.919.502-1.53 0-.442-.177-.829-.53-1.16zM.963 10H0l.084-.915C.19 8.17.663 7.468 1.507 6.98 2.352 6.494 3.516 6.25 5 6.25s2.648.243 3.493.728c.844.486 1.318 1.186 1.423 2.101L10 10h-.963l-.084-.837a1.767 1.767 0 0 0-.322-.851 2.03 2.03 0 0 0-.653-.589 3.878 3.878 0 0 0-.905-.357 6.426 6.426 0 0 0-1.017-.19c-.331-.033-.683-.05-1.056-.05s-.725.017-1.056.05c-.33.034-.67.097-1.017.19a3.799 3.799 0 0 0-.905.36 2.074 2.074 0 0 0-.653.589c-.179.245-.286.53-.322.854L.963 10z" fill="#949AA1" fill-rule="evenodd"/></svg>