<svg width="80" height="11" xmlns="http://www.w3.org/2000/svg"><path d="M0 .167h1.035l6.169 7.847V.167H8.28V9.96h-.88l-6.324-8.03v8.03H0V.167zM11.664 5.09v-.028C11.664 2.364 13.693 0 16.672 0c2.98 0 4.98 2.336 4.98 5.035v.027c0 2.702-2.027 5.065-5.008 5.065-2.98 0-4.98-2.337-4.98-5.037zm8.841 0v-.028c0-2.223-1.621-4.043-3.86-4.043-2.24 0-3.833 1.791-3.833 4.016v.027c0 2.224 1.622 4.044 3.86 4.044 2.24 0 3.833-1.792 3.833-4.016zm4.45-4.923h2.155V8h4.882v1.959h-7.036V.167zm14.082-.07h1.987L45.22 9.96H42.97l-.896-2.195h-4.141l-.895 2.195h-2.196L39.037.098zm2.267 5.762l-1.301-3.174-1.301 3.174h2.602zM53.405.167c1.12 0 2 .307 2.56.868.448.448.672.99.672 1.663 0 1.134-.588 1.75-1.287 2.141 1.132.434 1.831 1.091 1.831 2.406 0 1.82-1.453 2.714-3.665 2.714H48.86V.167h4.546zm.111 7.904c.951 0 1.526-.338 1.526-1.064V6.98c0-.659-.489-1.066-1.594-1.066h-2.491v2.157h2.56zm-.573-3.945c.952 0 1.554-.308 1.554-1.035v-.029c0-.644-.503-1.007-1.413-1.007h-2.127v2.07h1.986zM61.056.167h7.384v1.917h-5.244V4.07h4.615v1.915h-4.615v2.057h5.314v1.917h-7.454V.167zm11.468 0h2.156V8h4.88v1.959h-7.036V.167z" fill="#949AA1" fill-rule="evenodd"/></svg>