<svg width="95" height="12" xmlns="http://www.w3.org/2000/svg" class="css-k46966 e1fs849p3"><path d="M0 .198h1.227l7.31 9.299V.198h1.276v11.603H8.769L1.276 2.287V11.8H0V.198zm13.822 5.833V6C13.822 2.8 16.226 0 19.756 0c3.53 0 5.901 2.769 5.901 5.966V6C25.657 9.2 23.255 12 19.723 12c-3.531 0-5.901-2.769-5.901-5.969zm10.476 0V6c0-2.635-1.921-4.791-4.575-4.791-2.652 0-4.542 2.122-4.542 4.758V6c0 2.635 1.924 4.791 4.575 4.791 2.653 0 4.542-2.123 4.542-4.759zM29.572.198h2.553V9.48h5.785V11.8h-8.338V.198zM46.258.116h2.355L53.585 11.8h-2.668l-1.061-2.6h-4.908l-1.06 2.6h-2.602L46.258.116zm2.686 6.827l-1.542-3.761-1.54 3.761h3.082zM63.284.198c1.327 0 2.37.364 3.033 1.028.531.531.797 1.175.797 1.97 0 1.345-.697 2.074-1.525 2.539 1.341.514 2.17 1.292 2.17 2.85 0 2.156-1.722 3.216-4.343 3.216h-5.52V.198h5.388zm.132 9.366c1.127 0 1.808-.4 1.808-1.261V8.27c0-.78-.58-1.263-1.89-1.263h-2.951v2.556h3.033zm-.68-4.675c1.129 0 1.841-.365 1.841-1.226V3.63c0-.763-.595-1.194-1.673-1.194h-2.521V4.89h2.353zM72.351.2h8.75v2.27h-6.215v2.354h5.469v2.27h-5.47v2.436h6.299v2.272H72.35V.198zm13.589 0h2.555v9.28h5.782v2.322H85.94V.198z" fill="#090706" fill-rule="evenodd"/></svg>