<svg width="15" height="15" xmlns="http://www.w3.org/2000/svg"><g fill-rule="evenodd"><path d="M4.276 1.293a2.965 2.965 0 0 0-2.962 2.962v6.415a2.965 2.965 0 0 0 2.962 2.962h6.414a2.965 2.965 0 0 0 2.962-2.962V4.255a2.965 2.965 0 0 0-2.962-2.962H4.276zm6.414 13.615H4.276A4.243 4.243 0 0 1 .037 10.67V4.255A4.243 4.243 0 0 1 4.276.017h6.414a4.243 4.243 0 0 1 4.239 4.238v6.415a4.243 4.243 0 0 1-4.239 4.238z"/><path d="M7.483 4.926a2.54 2.54 0 0 0-2.536 2.536A2.54 2.54 0 0 0 7.483 10a2.54 2.54 0 0 0 2.536-2.537 2.54 2.54 0 0 0-2.536-2.536zm0 6.349A3.817 3.817 0 0 1 3.67 7.462 3.817 3.817 0 0 1 7.483 3.65a3.817 3.817 0 0 1 3.813 3.813 3.817 3.817 0 0 1-3.813 3.813zM12.376 3.431a.916.916 0 1 1-1.833 0 .916.916 0 0 1 1.833 0"/></g></svg>